<svg xmlns="http://www.w3.org/2000/svg" width="64" height="64" fill="none"><g clip-path="url(#a)"><circle cx="32" cy="32" r="32" fill="#fff"/><g fill="#03F" clip-path="url(#b)"><path d="M23.146 22.63c2.59 0 3.546-1.588 3.546-3.547s-.956-3.548-3.546-3.548-3.546 1.587-3.546 3.546c0 1.96.958 3.547 3.546 3.547v.001Z"/><path d="M35.56 23.389v2.28h-5.827v5.068h5.827v12.667h-9.627V25.668H13.267v5.067h7.094v12.667H12v5.068h38v-5.068h-8.867V30.735H50v-5.067h-8.867V20.6H50v-5.066h-6.587c-4.33 0-7.853 3.523-7.853 7.854Z"/></g></g><defs><clipPath id="a"><path fill="#fff" d="M0 0h64v64H0z"/></clipPath><clipPath id="b"><path fill="#fff" d="M12 15.535h38v32.933H12z"/></clipPath></defs></svg>