<svg viewBox="0 0 55.3388 55.3388" fill="none" xmlns="http://www.w3.org/2000/svg" role="img" aria-label="Haystack">
  <rect width="55.3388" height="55.3388" rx="4.26442" fill="#0EAF9C" />
  <path
    d="M41.7585 36.8447C41.7585 37.1692 41.494 37.4309 41.1685 37.4309C38.2332 37.4309 35.854 35.0669 35.854 32.1504V22.6587C35.854 18.4462 32.4169 15.0322 28.1784 15.0322C23.94 15.0322 20.6916 18.4473 20.6916 22.6587V26.1748C20.6848 26.4927 20.9391 26.7554 21.2578 26.7611C21.2624 26.7611 21.2658 26.7611 21.2703 26.7611H24.6238C24.9493 26.7678 25.2194 26.5106 25.2262 26.1861C25.2262 26.1816 25.2262 26.1782 25.2262 26.1737V22.516C25.2262 20.8955 26.5475 19.5827 28.1784 19.5827C29.8094 19.5827 31.1307 20.8955 31.1307 22.516V44.5643C31.1239 44.8945 30.8492 45.1573 30.5169 45.1505C27.5952 45.1505 25.2262 42.7967 25.2262 39.8937C25.2262 39.8858 25.2262 39.8779 25.2262 39.8701V32.8299C25.2194 32.5042 24.9515 32.2436 24.6238 32.2436H21.2703C20.9504 32.2436 20.6916 32.5008 20.6916 32.8186C20.6916 32.8231 20.6916 32.8265 20.6916 32.831V35.1781C20.6916 38.0946 18.1236 40.4585 15.1883 40.4585C14.8617 40.4585 14.5984 40.1958 14.5984 39.8723V22.6598C14.5984 15.2074 20.678 9.16669 28.1784 9.16669C35.6788 9.16669 41.7585 15.2074 41.7585 22.6598V36.8447Z"
    fill="white" />
</svg>
